# xmcd
#
# Track frame offsets:
#	150
#	17460
#	34180
#	51825
#	74902
#	92557
#	106235
#	125800
#	147432
#	161310
#	175000
#
# Disc length: 2519 seconds
#
# Revision: 0
# Processed by: cddbd v1.4b42PL1 Copyright (c) Steve Scherf et al.
# Submitted via: OrangeCD 4.1
#
DISCID=9409d50b
DTITLE=Kenny Neal - Blues Fallin' Down Like Rain
DYEAR=1900
DGENRE=
TTITLE0=Big Boss Man
TTITLE1=Shadow On the Moon
TTITLE2=My Babe
TTITLE3=The Things I Used To Do
TTITLE4=Someday
TTITLE5=Just A Matter of Time
TTITLE6=Blues Fallin' Down Like Rain
TTITLE7=I'm Ready
TTITLE8=Full-Time Fool
TTITLE9=Strike While the Iron is Hot
TTITLE10=Can't Say I Didn't Try
EXTD=
EXTT0=
EXTT1=
EXTT2=
EXTT3=
EXTT4=
EXTT5=
EXTT6=
EXTT7=
EXTT8=
EXTT9=
EXTT10=
PLAYORDER=
